<svg width="27" height="27" viewBox="0 0 27 27" fill="none" xmlns="http://www.w3.org/2000/svg">
<path d="M6.08672 12.4199C5.22414 12.2931 4.35562 12.2107 3.4846 12.1729C3.10266 12.1493 2.59922 12.3484 2.51203 13.3114C2.49577 13.5536 2.51914 13.7968 2.58122 14.0314C2.63908 14.2765 2.76951 14.4983 2.95547 14.668C3.14143 14.8377 3.37426 14.9474 3.62353 14.9826L7.34672 15.5069C7.36531 15.51 7.38413 15.5115 7.40297 15.5114C7.4757 15.5115 7.5472 15.4927 7.61055 15.457C7.6739 15.4213 7.72694 15.3698 7.76453 15.3075C7.80211 15.2453 7.82296 15.1743 7.82505 15.1017C7.82714 15.029 7.81041 14.957 7.77647 14.8926C6.55191 12.5633 6.23803 12.4666 6.08672 12.4199ZM3.7411 14.1473C3.65931 14.1348 3.58316 14.0981 3.52249 14.0418C3.46182 13.9855 3.41942 13.9124 3.40078 13.8318C3.36154 13.6873 3.34522 13.5375 3.35241 13.3879C3.35374 13.2599 3.38272 13.1336 3.43735 13.0178H3.44916C4.41103 13.078 5.49272 13.1652 5.78578 13.2169C6.10249 13.6407 6.38572 14.0885 6.63291 14.5563L3.7411 14.1473Z" fill="#222222"/>
<path d="M23.3785 12.1731C22.5075 12.2109 21.639 12.2933 20.7764 12.4201C20.6251 12.4667 20.3106 12.5635 19.0844 14.8951C19.0505 14.9594 19.0337 15.0314 19.0358 15.1041C19.0379 15.1768 19.0588 15.2477 19.0963 15.3099C19.1339 15.3722 19.187 15.4237 19.2503 15.4594C19.3137 15.4951 19.3852 15.5139 19.4579 15.5138C19.4767 15.5139 19.4956 15.5124 19.5141 15.5093L23.2373 14.9851C23.4866 14.9498 23.7194 14.8401 23.9054 14.6704C24.0914 14.5007 24.2218 14.2789 24.2796 14.0339C24.3415 13.7992 24.3649 13.556 24.3488 13.3139C24.2633 12.3486 23.7571 12.1501 23.3785 12.1731ZM23.4623 13.8319C23.4437 13.9125 23.4013 13.9857 23.3406 14.042C23.28 14.0982 23.2038 14.135 23.122 14.1475L20.2302 14.5547C20.4776 14.0872 20.7606 13.6394 21.0768 13.2154C21.3749 13.1631 22.4577 13.0759 23.419 13.0163C23.4804 13.1306 23.5119 13.2584 23.5107 13.3881C23.5179 13.5377 23.5016 13.6874 23.4623 13.8319Z" fill="#222222"/>
<path d="M19.2717 12.8126C19.2292 12.7519 19.1715 12.7034 19.1044 12.672C19.0373 12.6406 18.9631 12.6274 18.8892 12.6337C18.8504 12.6371 14.9754 12.9712 13.433 12.9712C11.8906 12.9712 8.01498 12.6337 7.97673 12.6337C7.90286 12.6272 7.82858 12.6403 7.7614 12.6717C7.69422 12.7031 7.63651 12.7516 7.59411 12.8125C7.5517 12.8733 7.52611 12.9443 7.51991 13.0182C7.51371 13.0921 7.52712 13.1663 7.55879 13.2333L8.66973 15.5908C8.70222 15.6593 8.7525 15.7178 8.81533 15.7603C8.87816 15.8027 8.95123 15.8275 9.02692 15.8321L13.4307 16.0841L17.8413 15.8321C17.917 15.8276 17.9901 15.8029 18.053 15.7604C18.1158 15.718 18.1661 15.6594 18.1985 15.5908L19.3094 13.2333C19.3408 13.1661 19.3539 13.0918 19.3473 13.0179C19.3407 12.944 19.3146 12.8731 19.2717 12.8126ZM17.5404 15.0063L13.4319 15.2437L9.3256 15.0063L8.63317 13.5371C9.8476 13.6361 12.2551 13.8183 13.4335 13.8183C14.612 13.8183 17.02 13.6361 18.235 13.5371L17.5404 15.0063Z" fill="#222222"/>
<path d="M25.7006 21.021C25.5887 21.021 25.4814 21.0655 25.4023 21.1446C25.3231 21.2237 25.2787 21.331 25.2787 21.4429V23.1945C25.2787 23.234 25.263 23.272 25.235 23.2999C25.2071 23.3279 25.1692 23.3436 25.1296 23.3436H22.9381C22.8986 23.3436 22.8607 23.3279 22.8327 23.2999C22.8048 23.272 22.7891 23.234 22.7891 23.1945V22.4723C22.7891 22.3604 22.7446 22.2531 22.6655 22.1739C22.5864 22.0948 22.4791 22.0504 22.3672 22.0504C22.2553 22.0504 22.148 22.0948 22.0689 22.1739C21.9898 22.2531 21.9453 22.3604 21.9453 22.4723V23.1945C21.9456 23.4577 22.0503 23.7101 22.2364 23.8962C22.4226 24.0823 22.6749 24.187 22.9381 24.1873H25.1319C25.3951 24.187 25.6474 24.0823 25.8336 23.8962C26.0197 23.7101 26.1244 23.4577 26.1247 23.1945V21.4429C26.1247 21.3873 26.1137 21.3322 26.0924 21.2809C26.071 21.2296 26.0397 21.183 26.0003 21.1438C25.9609 21.1046 25.9141 21.0735 25.8627 21.0525C25.8113 21.0314 25.7562 21.0207 25.7006 21.021Z" fill="#222222"/>
<path d="M4.46676 22.0501C4.35488 22.0501 4.24757 22.0945 4.16845 22.1736C4.08934 22.2527 4.04489 22.36 4.04489 22.4719V23.1942C4.04489 23.2336 4.02926 23.2714 4.00143 23.2994C3.97359 23.3273 3.93582 23.3431 3.89639 23.3432H1.70264C1.6632 23.3431 1.62543 23.3273 1.5976 23.2994C1.56977 23.2714 1.55414 23.2336 1.55414 23.1942V21.4431C1.55414 21.3312 1.50969 21.2239 1.43057 21.1448C1.35146 21.0657 1.24415 21.0212 1.13226 21.0212C1.02038 21.0212 0.913069 21.0657 0.833953 21.1448C0.754836 21.2239 0.710388 21.3312 0.710388 21.4431V23.1947C0.710536 23.4577 0.814952 23.7099 1.00074 23.896C1.18654 24.0821 1.43854 24.187 1.70151 24.1876H3.89526C4.15843 24.1873 4.41073 24.0825 4.59676 23.8964C4.78279 23.7103 4.88736 23.4579 4.88751 23.1947V22.4725C4.88766 22.3607 4.84344 22.2534 4.76455 22.1742C4.68566 22.095 4.57855 22.0504 4.46676 22.0501Z" fill="#222222"/>
<path d="M26.0482 7.79337L24.6419 7.55037C24.4365 7.51246 24.2242 7.54568 24.0402 7.64456C23.8561 7.74343 23.7112 7.90206 23.6294 8.09431L23.5535 8.26306L22.5567 5.91181C22.3314 5.37269 21.9718 4.90024 21.5122 4.53947C21.0526 4.17869 20.5082 3.94161 19.931 3.85081C17.7802 3.52429 15.6073 3.36519 13.4319 3.37493C11.2564 3.36538 9.08353 3.52467 6.93274 3.85137C6.35559 3.94212 5.81128 4.17912 5.35165 4.53979C4.89202 4.90046 4.53238 5.37279 4.30699 5.91181L3.30686 8.26531L3.23599 8.09993C3.15481 7.90687 3.0103 7.74719 2.82627 7.6472C2.64224 7.54721 2.42965 7.51286 2.22349 7.54981L0.817238 7.79337C0.589028 7.83121 0.381663 7.94885 0.232086 8.12531C0.0825098 8.30177 0.00043661 8.52561 0.000488306 8.75693V9.03312C0.000698979 9.2558 0.0766634 9.47178 0.215895 9.64557C0.355127 9.81935 0.549341 9.9406 0.766613 9.98937L2.10199 10.2909L1.51024 11.1937C0.997498 11.9738 0.724686 12.8871 0.725551 13.8206V18.6187C0.725551 20.4294 1.98668 21.5999 3.93968 21.5999H22.924C24.8771 21.5999 26.1382 20.4299 26.1382 18.6187V13.8183C26.139 12.8848 25.8662 11.9715 25.3535 11.1914L24.7617 10.2914L26.0926 9.99106C26.3105 9.94287 26.5055 9.82191 26.6455 9.6481C26.7855 9.47428 26.8621 9.25798 26.8627 9.03481V8.75862C26.8633 8.5273 26.7818 8.30327 26.6326 8.12648C26.4834 7.94969 26.2763 7.83163 26.0482 7.79337ZM0.948301 9.16362C0.918692 9.15696 0.89224 9.1404 0.873319 9.11667C0.854398 9.09294 0.844139 9.06347 0.844238 9.03312V8.75693C0.843781 8.72507 0.85495 8.69412 0.875657 8.6699C0.896364 8.64567 0.925189 8.62982 0.956738 8.62531L2.36918 8.38118C2.38899 8.37762 2.40942 8.38135 2.42669 8.39169C2.44396 8.40203 2.4569 8.41828 2.46311 8.43743L2.80793 9.21706L2.59755 9.53768L0.948301 9.16362ZM25.2944 17.3081H2.63861C2.52673 17.3081 2.41942 17.3525 2.3403 17.4316C2.26119 17.5107 2.21674 17.618 2.21674 17.7299C2.21674 17.8418 2.26119 17.9491 2.3403 18.0282C2.41942 18.1074 2.52673 18.1518 2.63861 18.1518H25.2944V18.6187C25.2944 19.9563 24.4085 20.7562 22.924 20.7562H3.93968C2.45524 20.7562 1.5693 19.9569 1.5693 18.6187V13.8183C1.56871 13.0492 1.7934 12.2967 2.21561 11.6538L3.54536 9.62543H21.9509C22.0628 9.62543 22.1701 9.58099 22.2492 9.50187C22.3284 9.42275 22.3728 9.31545 22.3728 9.20356C22.3728 9.09167 22.3284 8.98437 22.2492 8.90525C22.1701 8.82613 22.0628 8.78168 21.9509 8.78168H4.00605L5.0838 6.24368C5.25343 5.83648 5.5246 5.47955 5.87143 5.20697C6.21826 4.93439 6.62917 4.75526 7.06493 4.68668C9.17188 4.36574 11.3006 4.20927 13.4319 4.21868C15.5631 4.20871 17.6918 4.36462 19.7988 4.685C20.2347 4.75373 20.6458 4.93311 20.9926 5.206C21.3395 5.47889 21.6105 5.83616 21.7799 6.24368L23.0129 9.15012C23.0225 9.17338 23.0344 9.19561 23.0484 9.2165L24.6481 11.6561C25.0703 12.2989 25.295 13.0514 25.2944 13.8206V17.3081ZM26.0189 9.03312C26.0189 9.06408 26.0082 9.09408 25.9886 9.11806C25.9691 9.14204 25.9418 9.15853 25.9115 9.16475L24.2679 9.536L24.0575 9.21537L24.4046 8.42787C24.4123 8.41082 24.4256 8.39682 24.4422 8.38807C24.4587 8.37932 24.4778 8.37631 24.4962 8.3795L25.9059 8.62362C25.9374 8.62813 25.9662 8.64398 25.9869 8.66821C26.0077 8.69244 26.0188 8.72338 26.0184 8.75525L26.0189 9.03312Z" fill="#222222"/>
</svg>
