<svg width="49" height="48" viewBox="0 0 49 48" fill="none" xmlns="http://www.w3.org/2000/svg">
<rect x="0.668457" width="48" height="48" rx="24" fill="#025595"/>
<path d="M29.6685 15.5C29.6685 15.3674 29.6158 15.2402 29.522 15.1464C29.4282 15.0527 29.3011 15 29.1685 15H26.6685C25.4096 14.9373 24.1771 15.3754 23.2402 16.2186C22.3033 17.0618 21.7382 18.2415 21.6685 19.5V22.2H19.1685C19.0358 22.2 18.9087 22.2527 18.8149 22.3464C18.7211 22.4402 18.6685 22.5674 18.6685 22.7V25.3C18.6685 25.4326 18.7211 25.5598 18.8149 25.6535C18.9087 25.7473 19.0358 25.8 19.1685 25.8H21.6685V32.5C21.6685 32.6326 21.7211 32.7598 21.8149 32.8535C21.9087 32.9473 22.0358 33 22.1685 33H25.1685C25.3011 33 25.4282 32.9473 25.522 32.8535C25.6158 32.7598 25.6685 32.6326 25.6685 32.5V25.8H28.2885C28.3996 25.8016 28.5082 25.7661 28.5969 25.6991C28.6857 25.6321 28.7496 25.5374 28.7785 25.43L29.4985 22.83C29.5184 22.7561 29.521 22.6787 29.5063 22.6036C29.4915 22.5285 29.4597 22.4578 29.4134 22.397C29.367 22.3361 29.3073 22.2867 29.2388 22.2526C29.1704 22.2184 29.095 22.2004 29.0185 22.2H25.6685V19.5C25.6933 19.2525 25.8096 19.0231 25.9945 18.8567C26.1794 18.6903 26.4197 18.5987 26.6685 18.6H29.1685C29.3011 18.6 29.4282 18.5473 29.522 18.4535C29.6158 18.3598 29.6685 18.2326 29.6685 18.1V15.5Z" fill="white"/>
</svg>
