<svg width="49" height="48" viewBox="0 0 49 48" fill="none" xmlns="http://www.w3.org/2000/svg">
<rect x="0.668457" width="48" height="48" rx="24" fill="#025595"/>
<path d="M27.8185 20.4C27.052 20.3974 26.2926 20.5459 25.5836 20.8371C24.8746 21.1283 24.23 21.5564 23.6866 22.0969C23.1433 22.6375 22.7118 23.2799 22.417 23.9874C22.1222 24.6949 21.9698 25.4535 21.9685 26.22V32.1C21.9685 32.3387 22.0633 32.5676 22.2321 32.7364C22.4008 32.9052 22.6298 33 22.8685 33H24.9685C25.2072 33 25.4361 32.9052 25.6049 32.7364C25.7736 32.5676 25.8685 32.3387 25.8685 32.1V26.22C25.8683 25.9474 25.9255 25.6778 26.0365 25.4288C26.1475 25.1798 26.3097 24.957 26.5125 24.7749C26.7154 24.5928 26.9543 24.4555 27.2138 24.372C27.4733 24.2884 27.7475 24.2605 28.0185 24.29C28.5045 24.3512 28.9511 24.5887 29.2737 24.9573C29.5962 25.326 29.7723 25.8002 29.7685 26.29V32.1C29.7685 32.3387 29.8633 32.5676 30.0321 32.7364C30.2008 32.9052 30.4298 33 30.6685 33H32.7685C33.0072 33 33.2361 32.9052 33.4049 32.7364C33.5736 32.5676 33.6685 32.3387 33.6685 32.1V26.22C33.6671 25.4535 33.5147 24.6949 33.2199 23.9874C32.9251 23.2799 32.4936 22.6375 31.9503 22.0969C31.4069 21.5564 30.7623 21.1283 30.0533 20.8371C29.3443 20.5459 28.5849 20.3974 27.8185 20.4Z" fill="white"/>
<path d="M19.2685 21.3H16.5685C16.0714 21.3 15.6685 21.7029 15.6685 22.2V32.1C15.6685 32.597 16.0714 33 16.5685 33H19.2685C19.7655 33 20.1685 32.597 20.1685 32.1V22.2C20.1685 21.7029 19.7655 21.3 19.2685 21.3Z" fill="white"/>
<path d="M17.9185 19.5C19.1611 19.5 20.1685 18.4926 20.1685 17.25C20.1685 16.0074 19.1611 15 17.9185 15C16.6758 15 15.6685 16.0074 15.6685 17.25C15.6685 18.4926 16.6758 19.5 17.9185 19.5Z" fill="white"/>
</svg>
