<svg width="49" height="48" viewBox="0 0 49 48" fill="none" xmlns="http://www.w3.org/2000/svg">
<rect x="0.668457" width="48" height="48" rx="24" fill="#025595"/>
<path d="M20.7485 32C22.2272 32.0495 23.7008 31.802 25.0822 31.2723C26.4636 30.7425 27.7249 29.9413 28.7914 28.9158C29.8578 27.8903 30.7079 26.6615 31.2914 25.3019C31.8749 23.9423 32.1799 22.4795 32.1885 21C32.8661 20.1614 33.3693 19.1958 33.6685 18.16C33.6908 18.0781 33.689 17.9916 33.6633 17.9108C33.6376 17.8299 33.589 17.7582 33.5235 17.7043C33.458 17.6505 33.3783 17.6167 33.294 17.607C33.2097 17.5974 33.1245 17.6123 33.0485 17.65C32.6939 17.8206 32.2948 17.8758 31.9073 17.8076C31.5198 17.7394 31.1634 17.5514 30.8885 17.27C30.5374 16.8856 30.1128 16.5755 29.6397 16.3582C29.1666 16.1409 28.6548 16.0208 28.1344 16.0049C27.6141 15.9891 27.0958 16.0778 26.6104 16.2659C26.125 16.454 25.6823 16.7376 25.3085 17.1C24.7967 17.5956 24.4218 18.2153 24.2203 18.8987C24.0188 19.582 23.9975 20.3059 24.1585 21C20.8085 21.2 18.5085 19.61 16.6685 17.43C16.6132 17.3674 16.5409 17.3222 16.4604 17.3001C16.3799 17.2779 16.2946 17.2796 16.2151 17.3051C16.1355 17.3305 16.0651 17.3786 16.0125 17.4434C15.9598 17.5082 15.9271 17.5869 15.9185 17.67C15.5679 19.6144 15.8208 21.6195 16.6431 23.4161C17.4654 25.2126 18.8177 26.7145 20.5185 27.72C19.3781 29.0278 17.7767 29.8446 16.0485 30C15.9559 30.0153 15.8704 30.0593 15.804 30.1256C15.7376 30.1919 15.6936 30.2774 15.6782 30.3699C15.6628 30.4625 15.6767 30.5576 15.718 30.6419C15.7593 30.7262 15.8259 30.7954 15.9085 30.84C17.412 31.5913 19.0677 31.9882 20.7485 32Z" fill="white"/>
</svg>
